HIERARCHY
ROOT Pelvis
{
	OFFSET 0.000000 0.000000 0.000000
	CHANNELS 6 Xposition Yposition Zposition Zrotation Yrotation Xrotation 
	JOINT Left_hip
	{
		OFFSET 0.067986 -0.089946 -0.007639
		CHANNELS 3 Zrotation Yrotation Xrotation
		JOINT Left_knee
		{
			OFFSET 0.036308 -0.388288 -0.004016
			CHANNELS 3 Zrotation Yrotation Xrotation
			JOINT Left_ankle
			{
				OFFSET -0.012264 -0.413250 -0.042878
				CHANNELS 3 Zrotation Yrotation Xrotation
				JOINT Left_foot
				{
					OFFSET 0.024043 -0.058563 0.118570
					CHANNELS 3 Zrotation Yrotation Xrotation
					End Site
					{
						OFFSET 0.000000 0.000000 0.000000
					}
				}
			}
		}
	}
	JOINT Right_hip
	{
		OFFSET -0.065648 -0.089374 -0.003858
		CHANNELS 3 Zrotation Yrotation Xrotation
		JOINT Right_knee
		{
			OFFSET -0.042132 -0.395021 -0.006361
			CHANNELS 3 Zrotation Yrotation Xrotation
			JOINT Right_ankle
			{
				OFFSET 0.014805 -0.413264 -0.041054
				CHANNELS 3 Zrotation Yrotation Xrotation
				JOINT Right_foot
				{
					OFFSET -0.021758 -0.049013 0.121832
					CHANNELS 3 Zrotation Yrotation Xrotation
					End Site
					{
						OFFSET 0.000000 0.000000 0.000000
					}
				}
			}
		}
	}
	JOINT Spine1
	{
		OFFSET -0.002755 0.104406 -0.022277
		CHANNELS 3 Zrotation Yrotation Xrotation
		JOINT Spine2
		{
			OFFSET 0.004136 0.129393 -0.002186
			CHANNELS 3 Zrotation Yrotation Xrotation
			JOINT Spine3
			{
				OFFSET 0.001906 0.049304 0.025578
				CHANNELS 3 Zrotation Yrotation Xrotation
				JOINT Neck
				{
					OFFSET -0.004620 0.210958 -0.044063
					CHANNELS 3 Zrotation Yrotation Xrotation
					JOINT Head
					{
						OFFSET 0.003833 0.067393 0.052435
						CHANNELS 3 Zrotation Yrotation Xrotation
						End Site
						{
							OFFSET 0.000000 0.000000 0.000000
						}
					}
				}
				JOINT Left_collar
				{
					OFFSET 0.070771 0.116689 -0.037192
					CHANNELS 3 Zrotation Yrotation Xrotation
					JOINT Left_shoulder
					{
						OFFSET 0.080652 0.031596 -0.005617
						CHANNELS 3 Zrotation Yrotation Xrotation
						JOINT Left_elbow
						{
							OFFSET 0.262654 -0.015020 -0.027939
							CHANNELS 3 Zrotation Yrotation Xrotation
							JOINT Left_wrist
							{
								OFFSET 0.250438 0.010062 -0.000990
								CHANNELS 3 Zrotation Yrotation Xrotation
								JOINT Left_palm
								{
									OFFSET 0.081198 -0.010037 -0.013706
									CHANNELS 3 Zrotation Yrotation Xrotation
									End Site
									{
										OFFSET 0.000000 0.000000 0.000000
									}
								}
							}
						}
					}
				}
				JOINT Right_collar
				{
					OFFSET -0.072972 0.115556 -0.040762
					CHANNELS 3 Zrotation Yrotation Xrotation
					JOINT Right_shoulder
					{
						OFFSET -0.082917 0.031841 -0.006673
						CHANNELS 3 Zrotation Yrotation Xrotation
						JOINT Right_elbow
						{
							OFFSET -0.252882 -0.013790 -0.020410
							CHANNELS 3 Zrotation Yrotation Xrotation
							JOINT Right_wrist
							{
								OFFSET -0.255570 0.009163 -0.005138
								CHANNELS 3 Zrotation Yrotation Xrotation
								JOINT Right_palm
								{
									OFFSET -0.080804 -0.007282 -0.010415
									CHANNELS 3 Zrotation Yrotation Xrotation
									End Site
									{
										OFFSET 0.000000 0.000000 0.000000
									}
								}
							}
						}
					}
				}
			}
		}
	}
}
MOTION
Frames: 9
Frame Time: 0.100000
0.099636 0.431788 -0.408516 168.823885 25.915342 -57.317237 5.467270 -1.170684 -43.821766 -19.969874 6.891383 72.240719 -9.894214 4.420544 8.122172 17.271425 7.628121 -19.888097 -3.399318 1.420331 -56.646057 3.071397 -12.122405 104.391784 -1.678816 -8.700585 1.875736 -12.318780 -0.234827 -9.707985 -0.127600 -4.975140 37.726628 -3.314323 -2.764731 7.280819 -0.896046 -0.302081 -1.846051 -7.010354 -6.114628 17.947500 11.855969 13.977379 -16.485486 -27.375865 -3.288713 1.845018 -33.856076 2.030048 19.921178 -49.324489 -74.083168 81.698870 18.877339 -23.901344 7.769014 -19.285451 -10.506269 -7.617118 5.370708 -4.931487 -0.901900 10.276204 -12.051451 -9.245537 -16.156773 55.926905 -6.262608 -14.155602 21.159147 -2.983597 22.682009 8.139955 -0.673415 
0.101728 0.433618 -0.415506 168.221283 24.812272 -58.906425 5.066763 -1.615999 -42.542386 -19.393064 4.445362 72.729095 -11.742486 5.674849 8.743884 17.554779 6.743689 -21.120859 -2.588387 3.408987 -62.086092 5.229827 -10.112347 88.445607 -1.354379 -10.412957 2.060749 -14.731228 1.671122 -8.703824 -0.259531 -5.890517 40.864203 -3.816412 -2.477616 6.767795 -0.571391 -0.122469 -1.623284 -8.596594 -6.604735 16.471905 13.783192 15.443548 -16.538027 -27.349280 -2.638322 2.036861 -32.995800 1.030494 19.682887 -56.067104 -74.173988 87.300157 19.372540 -23.651872 7.919457 -18.622197 -10.578501 -7.755763 4.753132 -5.221445 -0.067727 8.887393 -11.219644 -11.925663 -13.958982 46.159693 -7.490069 -13.279749 19.568317 -0.731575 21.746494 8.787237 -1.104517 
0.101469 0.436101 -0.417873 167.927034 24.005560 -60.387131 3.757502 -2.748847 -41.154474 -18.088362 2.553200 73.779061 -13.002106 7.613264 8.761928 18.575339 6.075062 -20.975254 -0.755207 3.755737 -67.517592 4.007257 -12.773682 75.430916 -3.199753 -13.827757 2.743533 -14.249044 2.689059 -7.300048 -0.562066 -6.584470 43.632034 -3.855597 -2.056262 7.209075 -0.103442 -0.191057 -1.783379 -9.483059 -6.421803 15.061682 14.913873 16.445773 -17.135510 -28.083423 -2.343516 2.817773 -31.425900 -0.777682 19.600365 -58.316267 -74.239238 87.767525 21.596414 -24.215682 6.963034 -18.272269 -10.280992 -8.380207 5.148783 -5.199860 0.289304 8.126657 -11.923521 -14.086584 -14.723640 41.424043 -13.007641 -15.669758 18.997654 -2.514250 21.837778 8.904471 -1.136252 
0.099900 0.437387 -0.420470 167.957450 24.620494 -60.552961 1.082718 -6.654253 -40.217974 -17.631531 0.698696 73.703499 -11.277824 9.668213 6.975081 17.825123 6.519551 -18.830730 1.220886 3.937946 -72.804819 2.959802 -17.883741 70.242381 -5.376977 -16.354799 1.584731 -12.706078 2.305952 -5.669244 -1.306532 -6.904984 45.669186 -3.368696 -1.926009 7.590954 0.489310 -0.590521 -2.243546 -10.504298 -6.464155 13.525140 15.609395 17.272476 -17.975785 -28.287455 -2.453478 3.364568 -31.302485 -2.057528 20.131502 -60.700774 -74.796592 89.934429 22.132554 -23.713361 7.286218 -17.731250 -9.684441 -9.948532 6.068187 -5.588789 -0.332452 10.311420 -13.024109 -14.057849 -19.241589 44.867157 -20.120916 -17.492543 18.386543 -7.116239 22.825152 8.475453 -1.290296 
0.100104 0.437799 -0.423643 168.530467 25.152221 -60.101396 -1.058171 -11.009106 -39.909873 -16.229388 -0.338637 73.365963 -9.256044 10.867483 6.679218 16.840137 8.006152 -17.655925 3.801385 4.860026 -76.363220 1.459694 -24.173007 71.938190 -6.552634 -17.047682 2.134317 -11.505016 1.279842 -5.253065 -2.097032 -7.077936 47.365198 -2.506793 -1.973051 7.721710 1.247107 -1.164620 -2.095830 -11.392562 -5.488367 10.954538 15.100274 17.306412 -19.289346 -27.288684 -3.055087 4.123480 -32.741844 -1.340659 19.906039 -72.235425 -77.493654 101.953542 19.366778 -22.682427 7.501753 -17.931508 -9.170784 -11.486322 7.213165 -4.578543 -0.730695 13.763967 -13.337365 -12.555088 -30.127249 56.090766 -28.544382 -16.193654 18.781482 -9.323955 24.088741 7.472150 -1.660272 
0.100605 0.438355 -0.424795 169.776246 25.781486 -59.451228 -2.009591 -13.604613 -39.919003 -14.808043 0.479060 72.627608 -7.292483 10.467757 7.045268 16.527688 10.574813 -16.519256 6.006233 5.568743 -76.746141 -1.913175 -29.955356 78.963756 -7.862235 -16.629654 1.920669 -9.840698 -0.916724 -4.751775 -2.932255 -6.798536 47.609559 -1.381036 -2.253844 8.208228 1.813496 -1.759037 -2.050147 -11.050527 -3.212537 9.669297 13.293934 16.464795 -19.635179 -25.200958 -4.008740 4.432203 -35.029678 -1.115335 19.623201 -112.522170 -80.594699 142.596990 14.876724 -20.132317 4.069261 -19.131887 -8.648063 -12.772338 8.512056 -2.011104 -1.742757 18.193071 -10.356663 -8.650340 -72.997051 71.972854 -66.490392 -14.488164 19.090906 -14.424293 25.584139 5.868208 -1.592065 
0.102145 0.438429 -0.422792 170.351824 27.037855 -59.395537 -2.207729 -14.599845 -39.683680 -14.146235 2.007366 71.698239 -5.858882 8.513423 7.425781 16.505807 13.330508 -16.066072 6.003702 5.619135 -75.810452 -4.834398 -31.467377 85.704586 -7.002447 -14.343445 3.428761 -10.260473 -3.054242 -6.165602 -2.940451 -6.218024 46.865346 -0.339108 -2.332358 8.400691 2.210690 -1.633634 -2.845913 -9.478145 -1.922367 10.110357 12.765256 14.104813 -18.220690 -23.066633 -6.838174 3.117845 -36.758238 -3.694758 19.274398 -153.029468 -80.201400 -176.782107 6.485298 -17.970991 4.250222 -20.080899 -8.982174 -13.515678 9.526569 3.250786 -2.359927 21.542283 -4.978098 -2.587641 -143.105465 71.938684 -129.947285 -6.588510 20.625812 -12.595972 25.290146 5.489774 -2.143343 
0.104659 0.439042 -0.420138 170.643984 28.405837 -58.799094 -2.102636 -14.841208 -40.364899 -14.294228 3.071288 71.262423 -5.083274 6.600193 7.366665 15.102662 15.166258 -15.514616 5.075412 5.078985 -75.310998 -7.390950 -30.854434 87.711074 -7.671965 -15.019694 3.662130 -9.562320 -4.063971 -5.718525 -1.996900 -5.518956 45.812219 -0.110123 -1.615000 7.567797 2.446329 -0.739631 -4.018735 -7.261218 -2.821805 10.678637 13.110761 11.156668 -17.341690 -21.191390 -10.065297 1.440687 -38.254852 -6.178119 19.564135 -168.738007 -80.706294 -160.109441 1.932874 -15.922955 6.723694 -19.993525 -9.798566 -13.364286 8.264285 7.456602 -2.207821 21.569537 -2.386380 0.632127 -169.699862 68.011248 -149.843814 -2.233113 20.688998 -5.107002 24.769074 6.912581 -3.634773 
0.105909 0.437467 -0.417643 171.784275 28.330772 -57.902886 -2.123486 -13.651952 -40.574093 -14.754467 3.436438 71.139768 -6.456785 7.649452 7.155499 16.262940 13.174473 -15.758175 5.730169 4.879675 -74.602054 -6.328372 -30.394130 85.484389 -8.320778 -16.671829 3.756376 -8.759715 -2.175720 -5.462216 -1.870273 -5.715234 45.743381 -1.507287 -1.267905 5.885429 1.899879 -0.436739 -3.069913 -6.202175 -4.630811 9.111591 14.266870 12.591387 -17.692271 -21.745121 -8.336257 1.545481 -35.952216 -3.579216 19.289984 -164.237524 -78.735069 -167.551489 4.617742 -17.096797 2.508311 -20.268621 -9.922819 -12.511298 5.402307 5.840976 -1.370738 15.511433 -4.518862 -1.875002 -171.290347 73.507828 -153.793521 -4.240210 20.930541 -5.750026 23.981685 7.182785 -3.104078 
